<svg width="118" height="118" viewBox="0 0 118 118" fill="none" xmlns="http://www.w3.org/2000/svg">
<path fill-rule="evenodd" clip-rule="evenodd" d="M118 59C118 91.5848 91.5848 118 59 118C26.4152 118 0 91.5848 0 59C0 26.4152 26.4152 0 59 0C72.8894 0 85.6578 4.79941 95.7372 12.8303C88.9244 15.0462 84 21.448 84 29C84 38.3888 91.6112 46 101 46C106.559 46 111.496 43.3314 114.597 39.2052C116.8 45.3927 118 52.0563 118 59ZM91 69C91 91.6437 72.6437 110 50 110C27.3563 110 9 91.6437 9 69C9 46.3563 27.3563 28 50 28C72.6437 28 91 46.3563 91 69Z" fill="url(#paint0_linear_0_1)"/>
<circle cx="102.5" cy="28.5" r="12.5" fill="#FD1A1A"/>
<path d="M30 59C30 55.6863 32.6863 53 36 53H60C63.3137 53 66 55.6863 66 59V83C66 86.3137 63.3137 89 60 89H36C32.6863 89 30 86.3137 30 83V59Z" fill="url(#paint1_linear_0_1)"/>
<defs>
<linearGradient id="paint0_linear_0_1" x1="124.5" y1="-46" x2="-24.5" y2="122.5" gradientUnits="userSpaceOnUse">
<stop stop-color="#3BC0F6"/>
<stop offset="0.650308" stop-color="#1E62BC"/>
<stop offset="1" stop-color="#000382"/>
</linearGradient>
<linearGradient id="paint1_linear_0_1" x1="30" y1="89" x2="66" y2="53" gradientUnits="userSpaceOnUse">
<stop stop-color="#1562D6"/>
<stop offset="1" stop-color="#9C94F8"/>
</linearGradient>
</defs>
</svg>
