<?xml version="1.0" standalone="no"?><!DOCTYPE svg PUBLIC "-//W3C//DTD SVG 1.1//EN" "http://www.w3.org/Graphics/SVG/1.1/DTD/svg11.dtd"><svg t="1713413750803" class="icon" viewBox="0 0 1437 1024" version="1.1" xmlns="http://www.w3.org/2000/svg" p-id="6963" xmlns:xlink="http://www.w3.org/1999/xlink" width="280.6640625" height="200"><path d="M1133.9093333 135.168l33.792 60.416 69.632 1.024-33.792-60.416z" fill="#78BEFE" p-id="6964"></path><path d="M1132.3733333 255.488l35.328-59.904 69.632 1.024-35.328 59.392z" fill="#2959C7" p-id="6965"></path><path d="M1133.9093333 135.168L1098.5813333 194.56l33.792 60.928 35.328-59.904z" fill="#457FE8" p-id="6966"></path><path d="M215.8933333 603.136l85.504-0.512 42.496-74.752-85.504 0.512z" fill="#78BEFE" p-id="6967"></path><path d="M344.9173333 676.352l-43.52-73.728 42.496-74.752 43.52 74.24z" fill="#2959C7" p-id="6968"></path><path d="M215.8933333 603.136L259.4133333 676.864l85.504-0.512-43.52-73.728z" fill="#457FE8" p-id="6969"></path><path d="M1062.2293333 606.72H427.8613333c-11.264 0-20.48-9.216-20.48-20.48V157.184c0-11.264 9.216-20.48 20.48-20.48h634.368c11.264 0 20.48 9.216 20.48 20.48v429.056c0 11.264-9.216 20.48-20.48 20.48zM1108.3093333 871.936H381.7813333c-11.264 0-20.48-9.216-20.48-20.48l46.08-224.256c0-11.264 9.216-20.48 20.48-20.48h634.368c11.264 0 20.48 9.216 20.48 20.48l46.08 224.256c0 11.264-9.216 20.48-20.48 20.48z" fill="#EBF1F8" p-id="6970"></path><path d="M1030.4853333 566.784H459.0933333c-5.632 0-10.24-4.608-10.24-10.24V170.496c0-5.632 4.608-10.24 10.24-10.24h571.392c5.632 0 10.24 4.608 10.24 10.24v386.048c0 5.632-4.608 10.24-10.24 10.24z" fill="#FFFFFF" p-id="6971"></path><path d="M408.4053333 592.896c2.56 8.192 10.24 13.824 19.456 13.824h634.368c8.704 0 16.384-5.632 19.456-13.824H408.4053333z" fill="#D4DEE8" p-id="6972"></path><path d="M850.7733333 518.656m-18.432 0a18.432 18.432 0 1 0 36.864 0 18.432 18.432 0 1 0-36.864 0Z" fill="#457FE8" p-id="6973"></path><path d="M914.7733333 518.656m-18.432 0a18.432 18.432 0 1 0 36.864 0 18.432 18.432 0 1 0-36.864 0Z" fill="#457FE8" p-id="6974"></path><path d="M979.2853333 518.656m-18.432 0a18.432 18.432 0 1 0 36.864 0 18.432 18.432 0 1 0-36.864 0Z" fill="#457FE8" p-id="6975"></path><path d="M477.0133333 664.576h-12.288c-8.704 0-15.872-7.168-15.872-15.872 0-8.704 7.168-15.872 15.872-15.872h12.288c8.704 0 15.872 7.168 15.872 15.872 0 9.216-7.168 15.872-15.872 15.872zM539.9893333 664.576h-12.288c-8.704 0-15.872-7.168-15.872-15.872 0-8.704 7.168-15.872 15.872-15.872h12.288c8.704 0 15.872 7.168 15.872 15.872-0.512 9.216-7.68 15.872-15.872 15.872zM602.4533333 664.576h-12.288c-8.704 0-15.872-7.168-15.872-15.872 0-8.704 7.168-15.872 15.872-15.872H602.4533333c8.704 0 15.872 7.168 15.872 15.872-0.512 9.216-7.168 15.872-15.872 15.872zM664.9173333 664.576h-12.288c-8.704 0-15.872-7.168-15.872-15.872 0-8.704 7.168-15.872 15.872-15.872h12.288c8.704 0 15.872 7.168 15.872 15.872-0.512 9.216-7.168 15.872-15.872 15.872zM727.3813333 664.576H715.0933333c-8.704 0-15.872-7.168-15.872-15.872 0-8.704 7.168-15.872 15.872-15.872h12.288c8.704 0 15.872 7.168 15.872 15.872 0 9.216-7.168 15.872-15.872 15.872zM789.8453333 664.576h-12.288c-8.704 0-15.872-7.168-15.872-15.872 0-8.704 7.168-15.872 15.872-15.872h12.288c8.704 0 15.872 7.168 15.872 15.872 0 9.216-7.168 15.872-15.872 15.872zM852.3093333 664.576h-12.288c-8.704 0-15.872-7.168-15.872-15.872 0-8.704 7.168-15.872 15.872-15.872h12.288c8.704 0 15.872 7.168 15.872 15.872 0 9.216-7.168 15.872-15.872 15.872zM915.2853333 664.576h-12.288c-8.704 0-15.872-7.168-15.872-15.872 0-8.704 7.168-15.872 15.872-15.872h12.288c8.704 0 15.872 7.168 15.872 15.872-0.512 9.216-7.68 15.872-15.872 15.872zM977.7493333 664.576h-12.288c-8.704 0-15.872-7.168-15.872-15.872 0-8.704 7.168-15.872 15.872-15.872h12.288c8.704 0 15.872 7.168 15.872 15.872-0.512 9.216-7.68 15.872-15.872 15.872zM458.5813333 717.824h-12.288c-8.704 0-15.872-7.168-15.872-15.872 0-8.704 7.168-15.872 15.872-15.872h12.288c8.704 0 15.872 7.168 15.872 15.872-0.512 9.216-7.168 15.872-15.872 15.872zM521.0453333 717.824h-12.288c-8.704 0-15.872-7.168-15.872-15.872 0-8.704 7.168-15.872 15.872-15.872h12.288c8.704 0 15.872 7.168 15.872 15.872-0.512 9.216-7.168 15.872-15.872 15.872zM583.5093333 717.824h-12.288c-8.704 0-15.872-7.168-15.872-15.872 0-8.704 7.168-15.872 15.872-15.872h12.288c8.704 0 15.872 7.168 15.872 15.872 0 9.216-7.168 15.872-15.872 15.872zM645.9733333 717.824h-12.288c-8.704 0-15.872-7.168-15.872-15.872 0-8.704 7.168-15.872 15.872-15.872h12.288c8.704 0 15.872 7.168 15.872 15.872 0 9.216-7.168 15.872-15.872 15.872zM708.4373333 717.824h-12.288c-8.704 0-15.872-7.168-15.872-15.872 0-8.704 7.168-15.872 15.872-15.872h12.288c8.704 0 15.872 7.168 15.872 15.872 0 9.216-7.168 15.872-15.872 15.872zM771.4133333 717.824h-12.288c-8.704 0-15.872-7.168-15.872-15.872 0-8.704 7.168-15.872 15.872-15.872h12.288c8.704 0 15.872 7.168 15.872 15.872-0.512 9.216-7.68 15.872-15.872 15.872zM833.8773333 717.824h-12.288c-8.704 0-15.872-7.168-15.872-15.872 0-8.704 7.168-15.872 15.872-15.872h12.288c8.704 0 15.872 7.168 15.872 15.872-0.512 9.216-7.168 15.872-15.872 15.872zM896.3413333 717.824H884.0533333c-8.704 0-15.872-7.168-15.872-15.872 0-8.704 7.168-15.872 15.872-15.872h12.288c8.704 0 15.872 7.168 15.872 15.872-0.512 9.216-7.168 15.872-15.872 15.872zM958.8053333 717.824h-12.288c-8.704 0-15.872-7.168-15.872-15.872 0-8.704 7.168-15.872 15.872-15.872h12.288c8.704 0 15.872 7.168 15.872 15.872 0 9.216-7.168 15.872-15.872 15.872zM1051.4773333 717.824h-42.496c-8.704 0-15.872-7.168-15.872-15.872 0-8.704 7.168-15.872 15.872-15.872h42.496c8.704 0 15.872 7.168 15.872 15.872-0.512 9.216-7.168 15.872-15.872 15.872zM445.2693333 771.072h-12.288c-8.704 0-15.872-7.168-15.872-15.872 0-8.704 7.168-15.872 15.872-15.872h12.288c8.704 0 15.872 7.168 15.872 15.872 0 8.704-7.168 15.872-15.872 15.872zM507.7333333 771.072h-12.288c-8.704 0-15.872-7.168-15.872-15.872 0-8.704 7.168-15.872 15.872-15.872h12.288c8.704 0 15.872 7.168 15.872 15.872 0 8.704-7.168 15.872-15.872 15.872zM570.1973333 771.072h-12.288c-8.704 0-15.872-7.168-15.872-15.872 0-8.704 7.168-15.872 15.872-15.872h12.288c8.704 0 15.872 7.168 15.872 15.872 0 8.704-7.168 15.872-15.872 15.872zM633.1733333 771.072h-12.288c-8.704 0-15.872-7.168-15.872-15.872 0-8.704 7.168-15.872 15.872-15.872H633.1733333c8.704 0 15.872 7.168 15.872 15.872-0.512 8.704-7.68 15.872-15.872 15.872zM695.6373333 771.072h-12.288c-8.704 0-15.872-7.168-15.872-15.872 0-8.704 7.168-15.872 15.872-15.872h12.288c8.704 0 15.872 7.168 15.872 15.872-0.512 8.704-7.168 15.872-15.872 15.872zM758.1013333 771.072H745.8133333c-8.704 0-15.872-7.168-15.872-15.872 0-8.704 7.168-15.872 15.872-15.872h12.288c8.704 0 15.872 7.168 15.872 15.872-0.512 8.704-7.168 15.872-15.872 15.872zM820.5653333 771.072h-12.288c-8.704 0-15.872-7.168-15.872-15.872 0-8.704 7.168-15.872 15.872-15.872h12.288c8.704 0 15.872 7.168 15.872 15.872 0 8.704-7.168 15.872-15.872 15.872zM883.0293333 771.072h-12.288c-8.704 0-15.872-7.168-15.872-15.872 0-8.704 7.168-15.872 15.872-15.872h12.288c8.704 0 15.872 7.168 15.872 15.872 0 8.704-7.168 15.872-15.872 15.872zM945.4933333 771.072h-12.288c-8.704 0-15.872-7.168-15.872-15.872 0-8.704 7.168-15.872 15.872-15.872h12.288c8.704 0 15.872 7.168 15.872 15.872 0 8.704-7.168 15.872-15.872 15.872zM1066.3253333 771.072h-70.656c-8.704 0-15.872-7.168-15.872-15.872 0-8.704 7.168-15.872 15.872-15.872h70.656c8.704 0 15.872 7.168 15.872 15.872 0 8.704-7.168 15.872-15.872 15.872z" fill="#FFFFFF" p-id="6976"></path><path d="M428.8853333 824.32h-12.288c-8.704 0-15.872-7.168-15.872-15.872 0-8.704 7.168-15.872 15.872-15.872h12.288c8.704 0 15.872 7.168 15.872 15.872 0 8.704-7.168 15.872-15.872 15.872zM491.8613333 824.32H479.5733333c-8.704 0-15.872-7.168-15.872-15.872 0-8.704 7.168-15.872 15.872-15.872h12.288c8.704 0 15.872 7.168 15.872 15.872-0.512 8.704-7.68 15.872-15.872 15.872zM554.3253333 824.32h-12.288c-8.704 0-15.872-7.168-15.872-15.872 0-8.704 7.168-15.872 15.872-15.872h12.288c8.704 0 15.872 7.168 15.872 15.872-0.512 8.704-7.68 15.872-15.872 15.872zM616.7893333 824.32h-12.288c-8.704 0-15.872-7.168-15.872-15.872 0-8.704 7.168-15.872 15.872-15.872h12.288c8.704 0 15.872 7.168 15.872 15.872-0.512 8.704-7.168 15.872-15.872 15.872zM805.7173333 824.32H666.9653333c-8.704 0-15.872-7.168-15.872-15.872 0-8.704 7.168-15.872 15.872-15.872h138.752c8.704 0 15.872 7.168 15.872 15.872-0.512 8.704-7.168 15.872-15.872 15.872zM866.6453333 824.32h-12.288c-8.704 0-15.872-7.168-15.872-15.872 0-8.704 7.168-15.872 15.872-15.872h12.288c8.704 0 15.872 7.168 15.872 15.872 0 8.704-7.168 15.872-15.872 15.872zM929.6213333 824.32h-12.288c-8.704 0-15.872-7.168-15.872-15.872 0-8.704 7.168-15.872 15.872-15.872h12.288c8.704 0 15.872 7.168 15.872 15.872-0.512 8.704-7.68 15.872-15.872 15.872zM992.0853333 824.32h-12.288c-8.704 0-15.872-7.168-15.872-15.872 0-8.704 7.168-15.872 15.872-15.872h12.288c8.704 0 15.872 7.168 15.872 15.872-0.512 8.704-7.168 15.872-15.872 15.872z" fill="#FFFFFF" p-id="6977"></path><path d="M463.7013333 182.784h115.712v15.36H463.7013333z" fill="#457FE8" p-id="6978"></path><path d="M603.9893333 182.784h107.008v15.36H603.9893333zM734.0373333 182.784h240.128v15.36h-240.128zM463.7013333 214.528h247.808v15.36H463.7013333z" fill="#D4DEE8" p-id="6979"></path><path d="M463.7013333 246.272h247.808v15.36H463.7013333z" fill="#48E5D4" p-id="6980"></path><path d="M463.7013333 278.016h247.808v15.36H463.7013333zM463.7013333 309.76h140.288v15.36H463.7013333z" fill="#D4DEE8" p-id="6981"></path><path d="M750.9333333 214.528h121.856v15.36H750.9333333z" fill="#48E5D4" p-id="6982"></path><path d="M750.9333333 246.272h121.856v15.36H750.9333333zM750.9333333 278.016h121.856v15.36H750.9333333z" fill="#D4DEE8" p-id="6983"></path><path d="M750.9333333 309.76h121.856v15.36H750.9333333z" fill="#48E5D4" p-id="6984"></path><path d="M750.9333333 355.84h198.656v15.36H750.9333333z" fill="#D4DEE8" p-id="6985"></path><path d="M889.1733333 309.76h68.608v15.36H889.1733333z" fill="#48E5D4" p-id="6986"></path><path d="M463.7013333 341.504H709.9733333v195.584H463.7013333z" fill="#D4DEE8" p-id="6987"></path><path d="M481.1093333 437.76v-11.264l55.808-21.504v13.312l-22.528 7.68-16.384 5.632v0.512l16.384 5.632 22.528 7.68v13.312l-55.808-20.992zM593.7493333 386.048h10.752l-26.624 107.008h-10.752l26.624-107.008zM636.2453333 446.464l23.04-7.68 16.384-5.632v-0.512l-16.384-5.632-23.04-7.68v-13.312l55.808 21.504v11.264l-55.808 21.504v-13.824z" fill="#FFFFFF" p-id="6988"></path><path d="M361.3013333 851.456c0 11.264 9.216 20.48 20.48 20.48h726.528c11.264 0 20.48-9.216 20.48-20.48l-1.024-4.608H361.8133333l-0.512 4.608z" fill="#D4DEE8" p-id="6989"></path><path d="M1208.1493333 720.896c0-19.456 12.288-35.84 29.184-42.496-4.096-15.872-10.24-31.232-18.432-45.056-16.896 7.68-36.864 4.608-50.688-9.216s-16.896-34.304-9.216-50.688c-13.824-8.192-29.184-14.336-45.056-18.432-6.656 16.896-23.04 29.184-42.496 29.184s-35.84-12.288-42.496-29.184c-15.872 4.096-31.232 10.24-45.056 18.432 7.68 16.896 4.608 36.864-9.216 50.688s-34.304 16.896-50.688 9.216c-8.192 13.824-14.848 29.184-18.944 45.056 16.896 6.656 29.184 23.04 29.184 42.496s-12.288 35.84-29.184 42.496c4.096 15.872 10.24 31.232 18.432 45.056 16.896-7.68 36.864-4.608 50.688 9.216s16.896 34.304 9.216 50.688c13.824 8.192 29.184 14.336 45.056 18.432 6.656-16.896 23.04-29.184 42.496-29.184s35.84 12.288 42.496 29.184c15.872-4.096 31.232-10.24 45.056-18.432-7.68-16.896-4.608-36.864 9.216-50.688s34.304-16.896 50.688-9.216c8.192-13.824 14.848-29.184 18.944-45.056-16.896-6.656-29.184-23.04-29.184-42.496z m-137.216 71.168c-39.424 0-71.168-31.744-71.168-71.168s31.744-71.168 71.168-71.168 71.168 31.744 71.168 71.168c0 38.912-32.256 71.168-71.168 71.168z" fill="#48E5D4" p-id="6990"></path></svg>